name new_emg_signals
nRows=68
nColumns=7
 
endheader
time	LGLTMED	LRF	LADDLONG	LBF	LTA	LGM
0.0	0.1065100847124862	0.0938723048662982	0.0843679409528855	0.3598274109664605	0.0890422788615883	0.3969582314259364
0.009999999999999787	0.0762397188267335	0.1033189542045672	0.0933588574136023	0.3275485874093171	0.0718253336764459	0.4154453463521773
0.019999999999999574	0.0461516337257533	0.1128442784958115	0.1025001707422418	0.2954673140063047	0.0545675807987547	0.4338349309321067
0.02999999999999936	0.0162641875392537	0.122443617107113	0.1117885519121432	0.263600581778095	0.0372780965231907	0.4521131314809891
0.040000000000000924	0.013404506255032	0.1321122340504036	0.1212205205633649	0.2319650449081282	0.0199659928580312	0.4702661666101679
0.05000000000000071	0.042836604854951	0.1418453239763547	0.1307924481934811	0.2005769975981854	0.0026404068783123	0.4882803491376999
0.0600000000000005	0.0720145617287837	0.1516380181797675	0.1405005615210145	0.1694523516919089	0.0146895098517917	0.5061421080934514
0.06999999999999851	0.1009211517281159	0.1614853905899599	0.1503409460094793	0.1386066151166481	0.0320146017598126	0.5238380107711991
0.0799999999999983	0.129539495666255	0.1713824637238266	0.1603095495421878	0.1080548711911133	0.0493257196240984	0.5413547847796484
0.08999999999999808	0.1578530843105738	0.1813242145831902	0.170402186240416	0.0778117588441094	0.0666137307888816	0.5586793400432543
0.09999999999999787	0.1858458017379674	0.1913055804815686	0.1806145404186581	0.0478914537875107	0.0838695292156199	0.5757987907024659
0.10999999999999588	0.2135019480033448	0.201321464788539	0.1909421706717025	0.0183076506850363	0.1010840453543624	0.5927004768614759
0.11999999999999567	0.2408062610718995	0.2113667425817287	0.2013805140885719	0.0109264536432644	0.118248255822035	0.6093719861306628
0.12999999999999545	0.2677439379672001	0.2214362661976432	0.2119248905883591	0.0397981759426932	0.1353531928778405	0.6258011749095695
0.13999999999999702	0.294300655088944	0.2315248706729594	0.2225705073734246	0.0682953611357272	0.1523899536881771	0.6419761893553563
0.1499999999999968	0.3204625876560816	0.241627379067869	0.2333124634958449	0.096406395790506	0.1693497093749896	0.6578854859802241
0.1599999999999966	0.3462164282329786	0.2517386076629626	0.2441457545336311	0.1241202204145785	0.1862237138425756	0.6735178518198852
0.16999999999999638	0.3715494042979625	0.2618533710208151	0.2550652773737609	0.1514263405454968	0.2030033123785477	0.6888624241137562
0.17999999999999616	0.3964492948153176	0.2719664869034023	0.2660658350992277	0.1783148366134883	0.2196799500256131	0.7039087094369554
0.18999999999999595	0.4209044457734218	0.282072781036756	0.2771421419770104	0.2047763725564501	0.2362451797216814	0.7186466022243866
0.19999999999999574	0.4449037846527792	0.2921670917150076	0.288288828543912	0.230802203173262	0.2526906702064311	0.7330664026286291
0.20999999999999552	0.4684368337889028	0.302244274237126	0.2995004467865143	0.2563841802066998	0.2690082136929616	0.7471588336554832
0.2199999999999971	0.4914937225962672	0.3122992051710652	0.3107714754114488	0.2815147571509826	0.2851897333032087	0.7609150575235349
0.22999999999999687	0.5140651986213646	0.3223267864414069	0.3220963252024508	0.3061869927822402	0.3012272902658485	0.774326691196692
0.23999999999999666	0.5361426373944226	0.3323219492379268	0.333469344460569	0.3303945534133834	0.3171130908755775	0.7873858210403517
0.24999999999999467	0.5577180510509155	0.3422796577438005	0.3448848245248487	0.3541317138786085	0.332839493213418	0.8000850165535544
0.25999999999999446	0.5787840956961767	0.3521949126840932	0.356337005370292	0.377393357256577	0.3483990136293318	0.8124173431317714
0.26999999999999424	0.5993340774899829	0.3620627546983471	0.367820081280466	0.4001749733449458	0.3637843329907229	0.8243763738188368
0.27999999999999403	0.6193619574333044	0.3718782675454299	0.3793282065913307	0.422472655902404	0.3789883027030771	0.8359562000109024
0.2899999999999938	0.6388623548446805	0.3816365811531181	0.3908555015031905	0.444283098677985	0.3940039505115952	0.8471514410789489
0.29999999999999183	0.6578305495176356	0.3913328745280774	0.4023960579576098	0.4656035902513513	0.4088244860946922	0.8579572528777735
0.3099999999999916	0.6762624825523025	0.4009623785435481	0.4139439455766371	0.4864320077118267	0.4234433064615695	0.8683693351096977
0.3199999999999914	0.6941547558555584	0.4105203786225787	0.4254932176628735	0.5067668092079447	0.4378540011667918	0.8783839375106193
0.32999999999999297	0.7115046303062057	0.420002217334596	0.4370379172591549	0.5266070254016106	0.4520503573548532	0.8879978648269217
0.33999999999999275	0.7283100225871219	0.4294032969226246	0.4485720832675937	0.5459522498634757	0.4660263646472934	0.8972084805551219
0.34999999999999254	0.7445695006945782	0.4387190817780083	0.4600897566271641	0.5648026284489818	0.4797762198841261	0.9060137094227328
0.3599999999999923	0.7602822781442748	0.4479451008789294	0.4715849865492728	0.5831588476982089	0.4932943317303584	0.9144120385972596
0.3699999999999921	0.7754482069032357	0.4570769502087404	0.4830518368102846	0.6010221223061031	0.5065753251572541	0.9224025176182428
0.3799999999999919	0.7900677690843428	0.466110295170113	0.4944843920997316	0.6183941817125439	0.5196140458070626	0.9299847570549806
0.3899999999999917	0.8041420674464502	0.475040873010925	0.5058767644229069	0.6352772558639723	0.5324055642492189	0.9371589259002024
0.3999999999999915	0.8176728147469766	0.4838644952778899	0.5172230995560684	0.6516740602012093	0.54494518013518	0.9439257477179004
0.40999999999999304	0.8306623219965608	0.4925770503134753	0.528517583553003	0.667587779930133	0.5572284262584919	0.9502864955704076
0.41999999999999105	0.8431134856673709	0.5011745058108584	0.5397544493013776	0.6830220536334187	0.5692510725255899	0.9562429857553504
0.42999999999999083	0.8550297739074733	0.5096529114407135	0.5509279831274094	0.6979809562819272	0.5810091298417178	0.961797570387324
0.4399999999999906	0.8664152118141217	0.5180084015621376	0.5620325314466383	0.7124689817042705	0.5924988539152131	0.9669531288616244
0.4499999999999904	0.8772743658183295	0.5262371980288818	0.5730625074574688	0.7264910245727234	0.6037167489822366	0.9717130582381382
0.4599999999999902	0.8876123272323219	0.5343356131003982	0.584012397873245	0.7400523619630188	0.6146595714532909	0.9760812625829792
0.46999999999999	0.8974346950111226	0.5423000524659093	0.5948767696874537	0.7531586345443451	0.6253243334823043	0.9800621413040748
0.47999999999998977	0.9067475577801302	0.5501270183881489	0.6056502769655215	0.7658158274544511	0.6357083064582979	0.9836605765161234
0.48999999999998956	0.9155574751820088	0.5578131129719889	0.6163276676557341	0.7780302509130307	0.6458090244187671	0.9868819194697144
0.49999999999998934	0.9238714585981868	0.5653550415617298	0.6269037904100503	0.7898085206248325	0.6556242873825093	0.9897319760800336
0.5099999999999874	0.931696951301029	0.5727496162695664	0.6373736014046482	0.8011575380218617	0.6651521645982961	0.99221699159183
0.5199999999999889	0.9390418080924184	0.5799937596364393	0.6477321711485736	0.8120844703923565	0.6743909977042841	0.9943436344204984
0.5299999999999887	0.9459142744826642	0.587084508425189	0.6579746912682997	0.8225967309419528	0.6833394037920999	0.9961189792135174
0.5399999999999885	0.9523229654614592	0.5940190175443257	0.6680964812545844	0.8327019588314225	0.6919962783687558	0.9975504891809488
0.5499999999999883	0.9582768439103168	0.6007945640988486	0.6780929951572401	0.8424079992344099	0.7003607982091955	0.9986459977464528
0.5599999999999881	0.9637851987037852	0.6074085515626909	0.6879598282117215	0.8517228834587154	0.7084324240916876	0.9994136895711936
0.5699999999999878	0.9688576225448468	0.6138585140650993	0.6976927233803655	0.8606548091749439	0.7162109034074082	0.999862081002652
0.5799999999999876	0.9735039895782304	0.6201421207811216	0.7072875777900753	0.8692121207960523	0.723696272634124	1.0
0.5899999999999874	0.9777344328236464	0.6262571804140413	0.716740449047844	0.877403290050378	0.7308888596618143	0.9998365655875436
0.599999999999989	0.9815593214695504	0.6322016457553197	0.726047561414904	0.8852368967891036	0.7377892859559233	0.9993811668879
0.6099999999999888	0.9849892380675864	0.6379736183054002	0.7352053118196712	0.8927216100671019	0.7443984685417168	0.998643441787326
0.6199999999999886	0.9880349556689038	0.6435713529366244	0.7442102756883687	0.8998661695344982	0.7507176217914657	0.9976332552864072
0.6299999999999866	0.9907074149455584	0.6489932625774198	0.7530592125707005	0.9066793671746703	0.7567482589945428	0.9963606775900428
0.6399999999999864	0.993017701342582	0.6542379228947616	0.7617490715362861	0.9131700294232958	0.762492193689069	0.9948359619916196
0.6499999999999861	0.9949770223078452	0.6593040769498016	0.7702769963161129	0.9193469997014008	0.7679515407322078	0.9930695226076628
0.6599999999999859	0.9965966846478668	0.6641906397993687	0.778640330162203	0.9252191213937552	0.773128717084701	0.9910719120202716
0.6699999999999857	0.9978880720590584	0.66889670301384	0.7868366203987761	0.930795221301744	0.7780264422836154	0.9888537988856176
